<?xml version="1.0" encoding="UTF-8" standalone="no"?>
<!-- Generator: Adobe Illustrator 18.1.0, SVG Export Plug-In . SVG Version: 6.00 Build 0)  -->

<svg
   xmlns:dc="http://purl.org/dc/elements/1.1/"
   xmlns:cc="http://creativecommons.org/ns#"
   xmlns:rdf="http://www.w3.org/1999/02/22-rdf-syntax-ns#"
   xmlns:svg="http://www.w3.org/2000/svg"
   xmlns="http://www.w3.org/2000/svg"
   xmlns:sodipodi="http://sodipodi.sourceforge.net/DTD/sodipodi-0.dtd"
   xmlns:inkscape="http://www.inkscape.org/namespaces/inkscape"
   version="1.1"
   id="Layer_1"
   x="0px"
   y="0px"
   viewBox="0 0 416.39999 416.39999"
   enable-background="new 0 0 500 500"
   xml:space="preserve"
   inkscape:version="0.91 r13725"
   sodipodi:docname="blacksmith.svg"
   width="416.39999"
   height="416.39999"
   inkscape:export-filename="/home/reza/GoSpace/src/github.com/cafebazaar/blacksmith/web/ui/img/blacksmith.png"
   inkscape:export-xdpi="55.330002"
   inkscape:export-ydpi="55.330002"><metadata
     id="metadata33"><rdf:RDF><cc:Work
         rdf:about=""><dc:format>image/svg+xml</dc:format><dc:type
           rdf:resource="http://purl.org/dc/dcmitype/StillImage" /><dc:title></dc:title></cc:Work></rdf:RDF></metadata><defs
     id="defs31" /><sodipodi:namedview
     pagecolor="#ffffff"
     bordercolor="#666666"
     borderopacity="1"
     objecttolerance="10"
     gridtolerance="10"
     guidetolerance="10"
     inkscape:pageopacity="0"
     inkscape:pageshadow="2"
     inkscape:window-width="1106"
     inkscape:window-height="836"
     id="namedview29"
     showgrid="false"
     fit-margin-top="46.2"
     fit-margin-left="8"
     fit-margin-right="8"
     fit-margin-bottom="46.2"
     inkscape:zoom="0.472"
     inkscape:cx="208.2"
     inkscape:cy="208.2"
     inkscape:window-x="0"
     inkscape:window-y="647"
     inkscape:window-maximized="0"
     inkscape:current-layer="Layer_1" /><g
     id="g3"
     transform="translate(-41.8,-41.8)"><path
       d="m 139.8,148.3 0,4.4 c 0,12.7 -3.9,20.8 -12.5,24.9 10.4,4.1 14.5,13.4 14.5,26.5 l 0,10.1 c 0,19.1 -10.1,29.3 -29.5,29.3 l -30.6,0 0,-123.6 29.3,0 c 20.1,0 28.8,9.3 28.8,28.4 z m -38.7,-10.8 0,32.7 7.6,0 c 7.2,0 11.7,-3.2 11.7,-13.1 l 0,-6.9 c 0,-8.8 -3,-12.7 -9.9,-12.7 l -9.4,0 z m 0,50.4 0,38 11.1,0 c 6.5,0 10.1,-3 10.1,-12.2 l 0,-10.8 c 0,-11.5 -3.7,-15 -12.5,-15 l -8.7,0 z"
       id="path5"
       inkscape:connector-curvature="0" /><path
       d="m 151.2,119.9 19.4,0 0,105.9 36.7,0 0,17.7 -56.1,0 0,-123.6 z"
       id="path7"
       inkscape:connector-curvature="0" /><path
       d="m 283.8,243.5 -19.6,0 -3.4,-22.4 -23.8,0 -3.4,22.4 -17.8,0 19.8,-123.6 28.4,0 19.8,123.6 z m -44.4,-39.2 18.7,0 -9.4,-62.5 -9.3,62.5 z"
       id="path9"
       inkscape:connector-curvature="0" /><path
       d="m 345.8,196 0,16.4 c 0,19.8 -9.9,31.1 -29,31.1 -19.1,0 -29,-11.3 -29,-31.1 l 0,-61.4 c 0,-19.8 9.9,-31.1 29,-31.1 19.1,0 29,11.3 29,31.1 l 0,12 -18.4,0 0,-13.2 c 0,-8.8 -3.9,-12.2 -10.1,-12.2 -6.2,0 -10.1,3.4 -10.1,12.2 l 0,63.9 c 0,8.8 3.9,12 10.1,12 6.2,0 10.1,-3.2 10.1,-12 l 0,-17.7 18.4,0 z"
       id="path11"
       inkscape:connector-curvature="0" /><path
       d="m 379.5,194.2 -6,11.3 0,38 -19.4,0 0,-123.6 19.4,0 0,53.9 25.4,-53.9 19.4,0 -27,55.1 27,68.5 -20,0 -18.8,-49.3 z"
       id="path13"
       inkscape:connector-curvature="0" /><path
       d="m 112.8,256.5 c 19.6,0 29.6,11.3 29.6,31.1 l 0,3.9 -19,0 0,-5.1 c 0,-8.8 -3.7,-12.2 -10.1,-12.2 -6.4,0 -10.1,3.4 -10.1,12.2 0,25.4 39.3,27.4 39.3,62.7 0,19.8 -10.2,31.1 -30,31.1 -19.7,0 -30,-11.3 -30,-31.1 l 0,-7.6 19,0 0,8.8 c 0,8.8 4,12 10.4,12 6.4,0 10.4,-3.2 10.4,-12 0,-25.4 -39.3,-27.4 -39.3,-62.7 0.2,-19.8 10.2,-31.1 29.8,-31.1 z"
       id="path15"
       inkscape:connector-curvature="0" /><path
       d="m 196.7,344.3 14.3,-87.8 29,0 0,123.6 -19.8,0 0,-88.6 -14.4,88.6 -19.8,0 -15.6,-87.4 0,87.4 -18.2,0 0,-123.6 29.1,0 15.4,87.8 z"
       id="path17"
       inkscape:connector-curvature="0" /><path
       d="m 253.3,256.5 19.4,0 0,123.6 -19.4,0 0,-123.6 z"
       id="path19"
       inkscape:connector-curvature="0" /><path
       d="m 302.8,257.9 45.8,15.4 -5.5,16.8 -13.5,-4.7 -30.8,94.7 -20.4,0 32.7,-100.8 -31.6,-10.5 23.3,-10.9 z"
       id="path21"
       inkscape:connector-curvature="0"
       style="fill:#a7a9ac" /><path
       d="m 373.5,380.1 -19.4,0 0,-123.6 19.4,0 0,53 25.1,0 0,-53 19.8,0 0,123.6 -19.8,0 0,-53 -25.1,0 0,53 z"
       id="path23"
       inkscape:connector-curvature="0" /></g><g
     id="g25"
     transform="translate(-41.8,-41.8)"><path
       d="m 450.2,412 -400.4,0 0,-324 400.3,0 0,324 z M 68,393.8 l 364,0 0,-287.6 -364,0 0,287.6 z"
       id="path27"
       inkscape:connector-curvature="0" /></g></svg>